<?xml version="1.0" encoding="UTF-8" standalone="no"?>
<!-- Created with Inkscape (http://www.inkscape.org/) -->

<svg
   xmlns:dc="http://purl.org/dc/elements/1.1/"
   xmlns:cc="http://creativecommons.org/ns#"
   xmlns:rdf="http://www.w3.org/1999/02/22-rdf-syntax-ns#"
   xmlns:svg="http://www.w3.org/2000/svg"
   xmlns="http://www.w3.org/2000/svg"
   xmlns:sodipodi="http://sodipodi.sourceforge.net/DTD/sodipodi-0.dtd"
   xmlns:inkscape="http://www.inkscape.org/namespaces/inkscape"
   width="13.229209mm"
   height="13.229136mm"
   viewBox="0 0 13.229209 13.229135"
   version="1.1"
   id="svg8"
   sodipodi:docname="repair.svg"
   inkscape:version="0.92.1 r15371">
  <defs
     id="defs2" />
  <sodipodi:namedview
     id="base"
     pagecolor="#ffffff"
     bordercolor="#666666"
     borderopacity="1.0"
     inkscape:pageopacity="0.0"
     inkscape:pageshadow="2"
     inkscape:zoom="0.18574285"
     inkscape:cx="-1187.6785"
     inkscape:cy="953.5219"
     inkscape:document-units="mm"
     inkscape:current-layer="layer1"
     showgrid="false"
     inkscape:window-width="1920"
     inkscape:window-height="1051"
     inkscape:window-x="0"
     inkscape:window-y="0"
     inkscape:window-maximized="1" />
  <metadata
     id="metadata5">
    <rdf:RDF>
      <cc:Work
         rdf:about="">
        <dc:format>image/svg+xml</dc:format>
        <dc:type
           rdf:resource="http://purl.org/dc/dcmitype/StillImage" />
        <dc:title></dc:title>
      </cc:Work>
    </rdf:RDF>
  </metadata>
  <g
     inkscape:label="Layer 1"
     inkscape:groupmode="layer"
     id="layer1"
     transform="translate(-670.94519,73.675662)">
    <path
       sodipodi:nodetypes="ccscsccssccccccccccccccscccccccccccccccscccscccccscccccscscccccccccsccccccccccccscccccccscccccsccsccsccsccccsccccccccsccsccscccccssccccccsccscccccsccsccss"
       inkscape:connector-curvature="0"
       id="path4526"
       d="m 671.07365,-60.477405 c -0.11098,-0.0383 -0.14625,-0.13384 -0.12039,-0.32623 0.0239,-0.17794 0.20009,-0.22568 0.83286,-0.22568 h 0.62487 v -0.95256 c 0,-1.07764 0.03,-1.01967 -0.52824,-1.02135 -0.19,-5.3e-4 -0.27156,-0.0288 -0.31823,-0.10991 -0.0891,-0.15503 -0.079,-0.21423 0.0585,-0.34222 0.1088,-0.10127 0.20205,-0.11284 0.90922,-0.11284 h 0.78798 v -2.38414 -2.38414 l -0.45438,-1.26051 -0.45438,-1.26051 0.23875,-1.3247 c 0.13131,-0.72858 0.27093,-1.36079 0.31026,-1.4049 0.10529,-0.11809 2.61447,-0.11809 2.71976,0 0.0393,0.0441 0.17951,0.67939 0.3115,1.41172 l 0.23997,1.33152 -0.45561,1.26972 -0.45561,1.2697 v 2.36813 2.36811 h 0.78799 c 0.70716,0 0.80042,0.0116 0.90922,0.11284 0.24114,0.22447 0.091,0.45879 -0.30803,0.48081 -0.1473,0.008 -0.31621,0.0175 -0.37535,0.0209 -0.0991,0.006 -0.10624,0.0799 -0.0909,0.95112 l 0.0166,0.94503 0.63647,0.0282 c 0.35003,0.0155 0.67053,0.0488 0.7122,0.0738 0.0989,0.0596 0.0977,0.34676 -0.002,0.42366 -0.0894,0.0691 -6.33977,0.1211 -6.53313,0.0544 z m 4.51655,-0.65589 c 0.0483,-0.14171 0.0229,-1.68227 -0.029,-1.76053 -0.0623,-0.0938 -2.3139,-0.10487 -2.43416,-0.012 -0.074,0.0571 -0.0884,0.22288 -0.0787,0.90271 0.007,0.458 0.0159,0.86446 0.0207,0.90325 0.007,0.0538 0.30149,0.0705 1.24723,0.0705 1.15008,0 1.24104,-0.007 1.27396,-0.10397 z m -0.91376,-2.61121 c 0.0208,-0.097 0.0379,-1.19443 0.0379,-2.43877 v -2.26246 l 0.43599,-1.22169 0.43599,-1.22169 -0.16703,-0.98006 c -0.0919,-0.53904 -0.19201,-1.03718 -0.22254,-1.107 -0.0538,-0.12308 -0.0811,-0.12694 -0.89884,-0.12694 -0.82503,0 -0.84399,0.003 -0.8741,0.12694 -0.0169,0.0698 -0.10696,0.56796 -0.20009,1.107 l -0.16934,0.98006 0.43599,1.22169 0.43599,1.22169 v 2.34951 c 0,1.29225 0.0166,2.38969 0.0368,2.43879 0.0271,0.0657 0.12085,0.0892 0.35611,0.0892 0.30914,0 0.32052,-0.006 0.3572,-0.17631 z m 5.77331,2.54024 -0.52263,-0.73914 v -1.16502 -1.16503 l -0.4202,-0.24128 c -0.43834,-0.2517 -0.53818,-0.38401 -0.43076,-0.57084 0.10052,-0.17483 0.28515,-0.19808 0.52538,-0.0661 0.11809,0.0649 0.2399,0.10343 0.27067,0.0857 0.0308,-0.0177 0.056,-0.41838 0.056,-0.89039 v -0.85819 l -0.41757,-0.23984 c -0.42522,-0.24423 -0.5356,-0.39415 -0.42799,-0.5813 0.0916,-0.15926 0.28332,-0.18428 0.50009,-0.0652 0.33136,0.18198 0.34556,0.14916 0.34439,-0.79456 v -0.85569 l -0.395,-0.21892 c -0.42284,-0.23433 -0.54121,-0.36845 -0.48103,-0.54494 0.0687,-0.20159 0.24412,-0.23903 0.51569,-0.11008 0.13496,0.0641 0.27173,0.10137 0.30394,0.0829 0.0322,-0.0185 0.0585,-0.31146 0.0585,-0.65096 l 1.4e-4,-0.61729 h -0.78797 c -0.71893,0 -0.79912,-0.0103 -0.9149,-0.11813 -0.1016,-0.0946 -0.11911,-0.15925 -0.0877,-0.32441 0.0667,-0.3516 0.32998,-0.78414 0.62721,-1.03066 0.30792,-0.2554 1.08214,-0.61761 1.53879,-0.71987 0.39688,-0.0889 1.3399,-0.078 1.78933,0.0206 0.90943,0.1996 1.72021,0.75055 1.99045,1.35259 0.13141,0.29274 0.1161,0.68898 -0.0294,0.76147 -0.0645,0.0321 -0.45999,0.0584 -0.87891,0.0584 -0.68444,0 -0.7618,0.01 -0.76306,0.0987 -0.0167,1.17456 0.009,2.75298 0.045,2.76456 0.026,0.008 0.2195,0.1169 0.42994,0.24114 0.35086,0.20716 0.38103,0.24058 0.36369,0.40279 -0.0259,0.24227 -0.17251,0.31944 -0.42655,0.22454 -0.44586,-0.16657 -0.41067,-0.23061 -0.41067,0.74738 v 0.88146 l 0.42428,0.25315 c 0.35995,0.21474 0.4243,0.27717 0.4243,0.41149 0,0.27903 -0.26753,0.3878 -0.51878,0.21092 -0.0647,-0.0456 -0.16541,-0.0836 -0.22373,-0.0846 -0.0965,-0.002 -0.10607,0.0766 -0.10607,0.86998 v 0.87176 l 0.42428,0.25549 c 0.37218,0.22409 0.4243,0.27657 0.4243,0.42709 0,0.24436 -0.24048,0.34573 -0.49617,0.20914 -0.18928,-0.10112 -0.35081,-0.12573 -0.35475,-0.0541 -0.002,0.0233 -0.008,0.2089 -0.0151,0.4125 -0.0121,0.34819 -0.0333,0.39846 -0.35688,0.84629 -0.65074,0.90052 -0.70219,0.95568 -0.89151,0.95568 -0.15622,0 -0.22763,-0.0758 -0.6967,-0.73914 z m 1.04845,-0.52327 0.25177,-0.3597 -0.0174,-0.57499 -0.0174,-0.57498 -0.50678,-0.29013 c -0.4851,-0.27774 -0.51035,-0.28556 -0.59099,-0.18293 -0.0617,0.0786 -0.0842,0.30426 -0.0842,0.84459 v 0.73738 l 0.27404,0.38023 c 0.15072,0.20913 0.31117,0.38023 0.35656,0.38023 0.0454,0 0.19583,-0.16187 0.33431,-0.3597 z m 0.24735,-3.1589 v -0.86689 l -0.52387,-0.29904 c -0.49642,-0.28335 -0.52817,-0.29353 -0.60613,-0.19429 -0.0865,0.11018 -0.11865,1.27679 -0.0424,1.54189 0.0415,0.14432 0.8802,0.68245 1.06634,0.68421 0.0965,7.9e-4 0.10607,-0.0775 0.10607,-0.86588 z m 0,-2.53778 v -0.86578 l -0.51869,-0.29504 c -0.40311,-0.22928 -0.53711,-0.28083 -0.6013,-0.23124 -0.0621,0.048 -0.0832,0.2553 -0.085,0.83682 -0.002,0.42518 0.017,0.79956 0.0406,0.83199 0.0745,0.10226 0.94728,0.58737 1.05825,0.58822 0.0965,5.3e-4 0.10607,-0.0777 0.10607,-0.86497 z m 0,-2.83575 v -1.15057 h -0.56875 c -0.53859,0 -0.57071,0.007 -0.60531,0.12695 -0.0455,0.15816 -0.0484,1.38365 -0.004,1.53887 0.039,0.13528 0.98196,0.70521 1.09809,0.66372 0.062,-0.0222 0.0795,-0.28151 0.0795,-1.17897 z m 1.63659,-1.88404 c 0,-0.13308 -0.40797,-0.46955 -0.78478,-0.6473 -0.87983,-0.41498 -1.97544,-0.41498 -2.85525,0 -0.38327,0.18078 -0.7848,0.51494 -0.7848,0.65315 0,0.10081 0.0946,0.10622 2.10634,0.12039 1.15848,0.008 2.15407,0.006 2.21242,-0.006 0.0583,-0.0114 0.10607,-0.0656 0.10607,-0.12037 z"
       style="fill:#000000;stroke-width:0.05847928" />
  </g>
</svg>
