<?xml version="1.0" encoding="UTF-8" standalone="no"?>
<!-- Created with Inkscape (http://www.inkscape.org/) -->

<svg
   xmlns:dc="http://purl.org/dc/elements/1.1/"
   xmlns:cc="http://creativecommons.org/ns#"
   xmlns:rdf="http://www.w3.org/1999/02/22-rdf-syntax-ns#"
   xmlns:svg="http://www.w3.org/2000/svg"
   xmlns="http://www.w3.org/2000/svg"
   xmlns:sodipodi="http://sodipodi.sourceforge.net/DTD/sodipodi-0.dtd"
   xmlns:inkscape="http://www.inkscape.org/namespaces/inkscape"
   width="13.22913mm"
   height="13.229141mm"
   viewBox="0 0 13.22913 13.229141"
   version="1.1"
   id="svg8"
   sodipodi:docname="service.svg"
   inkscape:version="0.92.1 r15371">
  <defs
     id="defs2" />
  <sodipodi:namedview
     id="base"
     pagecolor="#ffffff"
     bordercolor="#666666"
     borderopacity="1.0"
     inkscape:pageopacity="0.0"
     inkscape:pageshadow="2"
     inkscape:zoom="0.18574285"
     inkscape:cx="-750.62207"
     inkscape:cy="-975.73494"
     inkscape:document-units="mm"
     inkscape:current-layer="layer1"
     showgrid="false"
     inkscape:window-width="1920"
     inkscape:window-height="1051"
     inkscape:window-x="0"
     inkscape:window-y="0"
     inkscape:window-maximized="1" />
  <metadata
     id="metadata5">
    <rdf:RDF>
      <cc:Work
         rdf:about="">
        <dc:format>image/svg+xml</dc:format>
        <dc:type
           rdf:resource="http://purl.org/dc/dcmitype/StillImage" />
      </cc:Work>
    </rdf:RDF>
  </metadata>
  <g
     inkscape:label="Layer 1"
     inkscape:groupmode="layer"
     id="layer1"
     transform="translate(-521.80608,305.94653)">
    <path
       sodipodi:nodetypes="ccccscscscscccccccccsccccccssccscccscscccccccscccsscccscsscsccsccscc"
       inkscape:connector-curvature="0"
       id="path4500"
       d="m 528.08141,-292.77725 c -0.0777,-0.0428 -1.47697,-0.63274 -3.10941,-1.31098 -1.63245,-0.67823 -3.01261,-1.27139 -3.06702,-1.31814 -0.0924,-0.0794 -0.0989,-0.33759 -0.0989,-3.91688 0,-3.57935 0.007,-3.83747 0.0989,-3.9167 0.13571,-0.11635 6.37159,-2.70658 6.51599,-2.70658 0.0637,0 1.49048,0.57317 3.17061,1.27371 1.68012,0.70054 3.07523,1.27371 3.10023,1.27371 0.025,0 0.11251,0.0528 0.19443,0.11733 l 0.14897,0.11732 v 3.86717 3.86717 l -0.18374,0.087 c -0.88254,0.41796 -6.22538,2.60682 -6.40258,2.62302 -0.12496,0.0114 -0.28938,-0.0142 -0.36748,-0.0572 z m 0.0429,-4.06748 -0.0146,-3.35222 -2.79848,-1.16849 c -1.53916,-0.64266 -2.83048,-1.15655 -2.86959,-1.14197 -0.0562,0.021 -0.0681,0.72502 -0.0565,3.36948 l 0.0146,3.34297 2.14832,0.89785 c 1.18158,0.49382 2.41546,1.00962 2.74195,1.14622 0.32649,0.1366 0.65106,0.25062 0.72127,0.25338 l 0.12765,0.005 -0.0146,-3.35222 z m 1.40187,3.09876 c 0.34035,-0.13941 1.58556,-0.65783 2.76713,-1.15206 l 2.14833,-0.89859 0.0146,-3.34215 c 0.0115,-2.64394 0,-3.3476 -0.0565,-3.36827 -0.0391,-0.0144 -1.33043,0.49943 -2.86959,1.14179 l -2.79848,1.16793 -0.0146,3.35241 c -0.0139,3.20433 -0.0101,3.35241 0.0879,3.35241 0.0564,0 0.38093,-0.11406 0.72127,-0.25347 z m 2.07175,-2.30527 c -0.0731,-0.0731 -0.0873,-0.21168 -0.0356,-0.34651 0.0177,-0.0462 0.29757,-0.19281 0.62188,-0.32575 l 0.58968,-0.24171 v -0.58463 c 0,-0.50914 0.0146,-0.59924 0.11307,-0.69784 0.13377,-0.13394 0.22198,-0.14179 0.37081,-0.033 0.0967,0.0707 0.1116,0.16317 0.12543,0.77837 0.0109,0.48572 -0.006,0.73887 -0.0565,0.83199 -0.0505,0.0936 -0.26789,0.21632 -0.72238,0.40791 -0.67024,0.28253 -0.88916,0.32847 -1.00633,0.21115 z m -2.01184,-5.13208 c 0.80916,-0.33712 1.0716,-0.47077 1.08375,-0.55194 0.0166,-0.11069 0.0286,-0.10535 -4.31987,-1.9136 l -1.02481,-0.42615 -1.12352,0.47021 c -0.87204,0.36496 -1.12352,0.49308 -1.12352,0.57241 0,0.0812 0.53377,0.32628 2.60061,1.19394 1.43033,0.60046 2.65439,1.09359 2.72013,1.09586 0.0657,0.002 0.59999,-0.19607 1.18723,-0.44073 z m 3.18777,-1.33127 c 0.76855,-0.32131 0.98936,-0.43665 0.98936,-0.51681 0,-0.0807 -0.24633,-0.20579 -1.1307,-0.57414 -0.62188,-0.25902 -1.46142,-0.61 -1.86565,-0.77996 -1.76821,-0.74346 -2.25544,-0.93832 -2.3462,-0.93832 -0.0532,0 -0.43746,0.14069 -0.85396,0.31265 -1.15094,0.47517 -1.24822,0.52556 -1.22706,0.63559 0.0133,0.069 0.76469,0.40902 2.61866,1.18497 1.43003,0.59852 2.65093,1.08854 2.71312,1.08893 0.0622,4.3e-4 0.55828,-0.18542 1.10243,-0.41291 z"
       style="fill:#000000;stroke-width:0.05657202" />
  </g>
</svg>
