<?xml version="1.0" encoding="UTF-8" standalone="no"?>
<!-- Created with Inkscape (http://www.inkscape.org/) -->

<svg
   xmlns:dc="http://purl.org/dc/elements/1.1/"
   xmlns:cc="http://creativecommons.org/ns#"
   xmlns:rdf="http://www.w3.org/1999/02/22-rdf-syntax-ns#"
   xmlns:svg="http://www.w3.org/2000/svg"
   xmlns="http://www.w3.org/2000/svg"
   xmlns:sodipodi="http://sodipodi.sourceforge.net/DTD/sodipodi-0.dtd"
   xmlns:inkscape="http://www.inkscape.org/namespaces/inkscape"
   width="13.22975mm"
   height="13.2287mm"
   viewBox="0 0 13.22975 13.228699"
   version="1.1"
   id="svg8"
   sodipodi:docname="supply.svg"
   inkscape:version="0.92.1 r15371">
  <defs
     id="defs2" />
  <sodipodi:namedview
     id="base"
     pagecolor="#ffffff"
     bordercolor="#666666"
     borderopacity="1.0"
     inkscape:pageopacity="0.0"
     inkscape:pageshadow="2"
     inkscape:zoom="0.18574285"
     inkscape:cx="-1560.7052"
     inkscape:cy="-681.13223"
     inkscape:document-units="mm"
     inkscape:current-layer="layer1"
     showgrid="false"
     inkscape:window-width="1920"
     inkscape:window-height="1051"
     inkscape:window-x="0"
     inkscape:window-y="0"
     inkscape:window-maximized="1" />
  <metadata
     id="metadata5">
    <rdf:RDF>
      <cc:Work
         rdf:about="">
        <dc:format>image/svg+xml</dc:format>
        <dc:type
           rdf:resource="http://purl.org/dc/dcmitype/StillImage" />
        <dc:title></dc:title>
      </cc:Work>
    </rdf:RDF>
  </metadata>
  <g
     inkscape:label="Layer 1"
     inkscape:groupmode="layer"
     id="layer1"
     transform="translate(-736.14057,227.99912)">
    <path
       style="fill:#000000;stroke-width:0.01657693"
       d="m 736.72586,-216.39497 v -1.62492 l -0.0434,-0.0679 c -0.073,-0.11403 -0.0985,-0.23271 -0.0985,-0.45831 v -0.20591 h -0.2217 -0.22169 v -1.67171 c 0,-1.66346 0.005,-1.84457 0.0632,-2.12076 0.0525,-0.25116 0.18501,-0.54287 0.33187,-0.7307 0.21393,-0.27363 0.59017,-0.4873 0.96813,-0.54983 0.19446,-0.0322 1.3463,-0.0365 1.3849,-0.005 0.0191,0.0155 0.0214,0.0155 0.0114,0 -0.01,-0.015 0.0319,-0.0194 0.18364,-0.0194 h 0.19612 v 0.7528 0.7528 l 0.22447,0.39455 0.22447,0.39454 0.0602,-0.005 0.0602,-0.005 -10e-4,-0.97225 -10e-4,-0.97225 h 2.15502 2.15503 v 0.97612 0.97612 h 0.81196 0.81197 l 0.22556,-0.39227 0.22556,-0.39228 v -0.75509 -0.75508 l 0.87348,0.005 c 0.76508,0.005 0.88668,0.009 0.97989,0.0323 0.33329,0.0844 0.56916,0.21133 0.76686,0.41277 0.0961,0.098 0.12621,0.13916 0.11873,0.16269 -0.007,0.0216 -0.005,0.0252 0.006,0.0114 0.019,-0.0239 0.0276,-0.0159 0.0975,0.0911 0.10541,0.16131 0.20997,0.44969 0.26359,0.72696 0.017,0.0881 0.0236,0.54473 0.027,1.88639 l 0.005,1.77019 h -0.22092 -0.22093 v 0.20592 c 0,0.2256 -0.0255,0.34427 -0.0984,0.45831 l -0.0434,0.0679 v 1.62492 1.62492 h -0.17736 -0.17735 v -1.49698 -1.49698 l 0.0998,-0.49908 c 0.0372,-0.0698 0.0418,-0.10073 0.0419,-0.28362 l 2e-4,-0.2053 h -0.99321 -0.99318 v 1.99098 1.99098 h -0.17737 -0.17736 v -2.78117 -2.78118 h -0.3547 c -0.34289,0 -0.35472,-0.001 -0.35472,-0.031 0,-0.0171 -0.007,-0.031 -0.0161,-0.031 -0.009,0 -0.0117,0.0146 -0.006,0.0324 0.008,0.0267 0.002,0.0318 -0.0327,0.0293 -0.0233,-0.002 -0.32772,-0.002 -0.67644,-10e-4 l -0.63404,0.002 v 0.4184 0.4184 l -2.15044,-0.004 -2.15043,-0.004 -0.004,-0.3796 c -0.002,-0.20878 -0.004,-0.39529 -0.004,-0.41446 -2.6e-4,-0.0347 -0.002,-0.0349 -0.28405,-0.0349 h -0.28377 l -0.002,0.18981 c -10e-4,0.10439 -2.6e-4,1.34864 0.002,2.765 0.002,1.41635 -0.002,2.58281 -0.009,2.59212 -0.008,0.0119 -0.0204,0.0109 -0.0404,-0.003 -0.0207,-0.0146 -0.0248,-0.0149 -0.0153,-9.8e-4 0.0101,0.0147 -0.0224,0.0187 -0.13849,0.0173 l -0.15163,-0.002 v -1.98894 -1.98895 h -0.99486 -0.99485 l 0.006,0.22079 c 0.006,0.19066 0.0118,0.22955 0.0454,0.28498 0.0933,0.48223 0,0 0.0933,0.48223 v 1.49698 1.49698 h -0.17736 -0.17736 z m 2.39198,1.53402 c -0.0104,-0.003 -0.0319,0.006 -0.0478,0.0196 -0.0267,0.0233 -0.0253,0.0238 0.0189,0.006 0.0263,-0.0108 0.0393,-0.0221 0.0289,-0.0252 z m -0.18065,-4.15737 c -0.006,-0.0124 -0.01,-0.009 -0.0107,0.009 -7.9e-4,0.0163 0.003,0.0255 0.009,0.0203 0.006,-0.005 0.007,-0.0185 0.001,-0.0297 z m 0.29825,-0.0126 c 0.006,-0.009 0.003,-0.0155 -0.008,-0.0155 -0.0103,0 -0.0188,0.007 -0.0188,0.0155 0,0.009 0.004,0.0155 0.008,0.0155 0.004,0 0.0127,-0.007 0.0188,-0.0155 z m -0.31037,-0.65849 c 0,-0.63254 -5.3e-4,-0.643 -0.0354,-0.643 -0.0292,0 -0.16295,-0.22276 -0.76363,-1.27222 -0.4005,-0.69972 -0.72573,-1.27355 -0.72274,-1.27519 0.003,-0.002 0.0693,-0.0299 0.14732,-0.0629 0.078,-0.033 0.14769,-0.0626 0.15479,-0.0658 0.007,-0.003 0.31834,0.52787 0.69164,1.18017 l 0.67872,1.186 1.34795,-1.2e-4 c 0.87252,-6e-5 1.37122,-0.006 1.41391,-0.0161 0.26947,-0.0654 0.32906,-0.39669 0.0967,-0.53742 l -0.0709,-0.0429 -1.18061,-0.008 -1.1806,-0.008 -0.58039,-1.01426 c -0.31921,-0.55784 -0.57874,-1.01531 -0.57674,-1.01661 0.0282,-0.0182 0.28964,-0.13054 0.30383,-0.13054 0.0107,0 0.0712,0.0938 0.1345,0.20845 0.0633,0.11464 0.1211,0.20877 0.12842,0.20917 0.007,3.9e-4 0.0133,-0.1213 0.0133,-0.27043 v -0.27114 l -0.62518,2.9e-4 c -0.70797,2.9e-4 -0.7831,0.008 -1.01536,0.10583 -0.32772,0.13784 -0.54723,0.3819 -0.67102,0.74607 -0.11403,0.33546 -0.11821,0.41019 -0.11821,2.11421 v 1.51117 l 1.20158,0.004 c 0.66088,0.002 1.20757,0.006 1.21489,0.008 0.007,0.002 0.0133,-0.28559 0.0133,-0.63924 z m -1.80902,-0.24016 v -0.15494 h 0.46112 0.46112 v 0.15494 0.15494 h -0.46112 -0.46112 z m 11.89564,-0.75533 c -0.007,-1.59238 -0.007,-1.6259 -0.0449,-1.777 -0.0741,-0.29886 -0.17381,-0.50531 -0.3315,-0.68665 -0.15911,-0.18297 -0.43896,-0.33082 -0.70824,-0.37418 -0.0632,-0.0102 -0.35185,-0.0169 -0.72273,-0.0169 h -0.61748 v 0.27889 c 0,0.15339 0.003,0.27889 0.006,0.27889 0.003,0 0.06,-0.0941 0.12578,-0.20913 0.0657,-0.11502 0.12587,-0.21256 0.13362,-0.21674 0.0118,-0.006 0.31963,0.11023 0.31963,0.12103 0,0.002 -0.26153,0.46005 -0.58119,1.01799 l -0.58118,1.01444 -1.16036,0.004 c -1.14059,0.004 -1.16168,0.005 -1.23788,0.0367 -0.0466,0.0197 -0.0965,0.0578 -0.12512,0.0956 -0.0406,0.0536 -0.0476,0.0793 -0.0476,0.17487 0,0.10221 0.005,0.11724 0.0551,0.17156 0.0303,0.0327 0.0822,0.0735 0.11528,0.0905 0.0586,0.0302 0.0966,0.0311 1.44356,0.0352 l 1.38338,0.004 0.67855,-1.18593 0.67855,-1.18593 0.0486,0.0215 c 0.0267,0.0118 0.0805,0.0342 0.11954,0.0497 0.039,0.0156 0.0886,0.038 0.1101,0.0499 0.0388,0.0215 0.033,0.0324 -0.68728,1.2908 -0.59921,1.04691 -0.73263,1.26916 -0.76187,1.26916 -0.0349,0 -0.0354,0.0104 -0.0354,0.63525 v 0.63526 h 1.21578 1.21579 z m -1.53897,0.90253 c -5.3e-4,-0.004 -7.9e-4,-0.06 -7.9e-4,-0.12396 0,-0.0639 5.3e-4,-0.13015 7.9e-4,-0.14719 8e-4,-0.0302 0.013,-0.031 0.46201,-0.031 h 0.46112 v 0.15494 0.15494 h -0.46112 c -0.25362,0 -0.46153,-0.003 -0.46201,-0.008 z m 1.83939,0.49968 c -0.005,-0.0107 -0.009,-0.002 -0.009,0.0194 0,0.0213 0.004,0.03 0.009,0.0194 0.005,-0.0106 0.005,-0.0281 0,-0.0387 z m 0.001,-0.18593 c -0.004,-0.0277 -0.007,-0.005 -0.007,0.0504 0,0.0554 0.003,0.0781 0.007,0.0504 0.004,-0.0277 0.004,-0.073 0,-0.10071 z m -5.3e-4,-0.13141 c -0.004,-0.0151 -0.008,-0.006 -0.009,0.0191 -2.5e-4,0.0256 0.003,0.0379 0.008,0.0274 0.005,-0.0105 0.005,-0.0314 7.9e-4,-0.0465 z m 0.0106,-0.11264 c 0.005,-0.0171 0.002,-0.0271 -0.007,-0.0223 -0.009,0.005 -0.0161,0.0187 -0.0161,0.031 0,0.0321 0.012,0.0275 0.0229,-0.009 z m -10.33562,-0.0899 c -0.005,-0.005 -0.0198,-1e-5 -0.0318,0.0106 -0.0174,0.0153 -0.0154,0.0171 0.01,0.009 0.0175,-0.006 0.0273,-0.0145 0.0219,-0.0192 z m 0.0793,-0.009 c 0,-0.003 -0.0124,-0.0102 -0.0275,-0.0153 -0.0158,-0.005 -0.0229,-0.003 -0.0167,0.006 0.0104,0.0147 0.0442,0.0218 0.0442,0.009 z m 4.73539,-0.25388 v -0.25997 l -0.12406,-0.0171 c -0.24442,-0.0336 -0.43466,-0.15579 -0.53902,-0.34615 -0.051,-0.0931 -0.0552,-0.11312 -0.0552,-0.26421 0,-0.15528 0.003,-0.16872 0.0603,-0.26736 0.10896,-0.18754 0.30822,-0.311 0.53758,-0.3331 l 0.1115,-0.0107 0.005,-0.29052 0.005,-0.29051 h -0.31076 -0.31077 v 0.10846 0.10846 h -0.17735 -0.17736 v -0.10846 -0.10846 h -0.8247 -0.8247 v 0.10846 0.10846 h -0.17736 -0.17735 v -0.10883 -0.10882 l -0.30309,0.004 -0.30309,0.004 10e-4,0.28664 0.001,0.28664 0.85675,0.008 0.85675,0.008 0.11673,0.0502 c 0.14059,0.0605 0.26516,0.17133 0.33151,0.29502 0.0421,0.0785 0.0475,0.1072 0.0475,0.25128 0,0.14989 -0.004,0.17061 -0.0549,0.2634 -0.0935,0.17148 -0.25001,0.28484 -0.45869,0.33231 -0.0879,0.02 -0.23937,0.0241 -0.90008,0.0241 -0.78237,0 -0.79438,4.8e-4 -0.79489,0.031 -2.7e-4,0.017 -5.3e-4,0.13208 -5.3e-4,0.25565 0,0.12356 2e-4,0.22815 5.3e-4,0.23241 2.6e-4,0.004 0.8066,0.008 1.79181,0.008 h 1.79129 z m -4.5814,0.1641 c -0.006,-0.0124 -0.01,-0.009 -0.0107,0.009 -7.9e-4,0.0163 0.003,0.0255 0.009,0.0203 0.006,-0.005 0.007,-0.0185 10e-4,-0.0297 z m 1.60182,-2.61559 v -0.062 h 0.17736 0.17735 v 0.062 0.062 h 0.82471 0.8247 v -0.062 -0.062 h 0.17736 0.17735 v 0.062 0.062 h 0.31037 0.31038 v -0.37186 -0.37185 h -1.78986 -1.78985 l -0.006,0.27502 c -0.003,0.15126 -0.003,0.31859 1.3e-4,0.37185 l 0.006,0.0968 h 0.29993 0.29993 v -0.062 z m 8.08261,-0.6601 c -0.006,-0.005 -0.0212,-0.006 -0.034,-0.001 -0.0141,0.005 -0.01,0.009 0.0107,0.009 0.0187,6.9e-4 0.0292,-0.003 0.0233,-0.008 z m -0.0955,-0.03 c -0.006,-0.0132 -0.0143,-0.0206 -0.019,-0.0165 -0.005,0.004 -0.003,0.0148 0.003,0.0239 0.0175,0.0247 0.0277,0.0199 0.0157,-0.007 z m -10.27843,-0.46456 c -0.005,-0.005 -0.0154,0.004 -0.022,0.0191 -0.01,0.0221 -0.008,0.0239 0.01,0.009 0.0121,-0.0105 0.0176,-0.023 0.0121,-0.0278 z m -0.7224,-0.41153 c -0.41354,-0.0709 -0.7591,-0.30053 -0.9422,-0.62616 -0.13414,-0.23855 -0.12995,-0.20039 -0.13673,-1.246 -0.004,-0.62727 2.6e-4,-0.9722 0.0134,-1.04548 0.0905,-0.50932 0.52781,-0.88665 1.12527,-0.97085 0.17067,-0.0241 0.58238,-0.0109 0.72821,0.0233 0.17373,0.0407 0.41342,0.15397 0.54475,0.25737 0.13767,0.10838 0.26806,0.27073 0.34169,0.42543 0.0283,0.0595 0.0527,0.10998 0.0542,0.1122 0.002,0.003 0.92961,-0.15307 1.02125,-0.17223 0.0233,-0.005 0.0345,0.0212 0.0601,0.13967 0.0173,0.0801 0.0269,0.14956 0.0215,0.15432 -0.005,0.005 -0.20407,0.0426 -0.44138,0.0842 -0.23731,0.0415 -0.47337,0.0832 -0.52458,0.0927 l -0.0931,0.0172 v 0.86721 c 0,0.73211 -0.004,0.88581 -0.0282,0.98663 -0.0155,0.0657 -0.0364,0.12814 -0.0465,0.13879 -0.0101,0.0106 -0.0118,0.0194 -0.004,0.0194 0.008,0 0.005,0.008 -0.007,0.0186 -0.0117,0.0102 -0.0213,0.0311 -0.0213,0.0465 0,0.0153 -0.008,0.0279 -0.0177,0.0279 -0.01,0 -0.0177,0.0112 -0.0177,0.0249 0,0.0167 -0.01,0.0217 -0.0291,0.0151 -0.0232,-0.008 -0.025,-0.005 -0.009,0.0118 0.0161,0.0169 0.007,0.0394 -0.044,0.10494 -0.19385,0.25074 -0.48908,0.42391 -0.82651,0.4848 -0.14916,0.0269 -0.58327,0.0316 -0.72211,0.008 z m 0.78303,-0.344 c 0.27842,-0.0941 0.48025,-0.27171 0.58481,-0.51457 0.0395,-0.0918 0.0401,-0.10362 0.0457,-0.96636 l 0.006,-0.8734 -0.0407,0.009 c -0.0224,0.005 -0.48766,0.0863 -1.03393,0.18112 -0.54625,0.0949 -1.01115,0.17621 -1.03309,0.1808 l -0.0399,0.008 1.4e-4,0.61421 c 5e-5,0.35075 0.008,0.6574 0.0186,0.71491 0.0501,0.27295 0.30621,0.54547 0.60199,0.64059 0.14911,0.0479 0.22139,0.0553 0.49659,0.0507 0.24633,-0.004 0.2873,-0.009 0.39417,-0.045 z m -1.00512,-2.38133 c 0.24331,-0.0425 0.45939,-0.0807 0.48018,-0.085 0.0359,-0.007 0.0289,-0.0261 -0.13516,-0.36496 -0.0951,-0.19641 -0.17752,-0.36109 -0.18309,-0.36596 -0.006,-0.005 -0.0715,0.018 -0.1465,0.0508 -0.30943,0.13541 -0.52039,0.44319 -0.52159,0.76099 -2.6e-4,0.0682 0.005,0.0814 0.0317,0.0814 0.0176,0 0.23111,-0.0348 0.47442,-0.0772 z m 1.27215,-0.22297 c 0.16373,-0.0287 0.30299,-0.0567 0.30946,-0.0624 0.0252,-0.022 -0.10538,-0.21352 -0.21447,-0.31436 -0.13984,-0.12924 -0.30229,-0.20941 -0.49392,-0.24372 -0.12937,-0.0232 -0.33329,-0.0334 -0.33329,-0.0168 0,0.01 0.30011,0.64141 0.32259,0.67892 0.0123,0.0206 0.0296,0.0257 0.0644,0.0193 0.0262,-0.005 0.18151,-0.0323 0.34524,-0.0609 z m 8.11782,2.94178 c -0.49281,-0.0874 -0.89324,-0.43097 -1.01214,-0.86831 -0.0342,-0.12584 -0.0355,-0.17373 -0.0303,-1.11121 0.005,-0.97874 0.005,-0.97982 0.0467,-1.08686 0.0606,-0.15717 0.1163,-0.25235 0.21396,-0.36542 0.0478,-0.0554 0.0846,-0.10281 0.0817,-0.10537 -0.003,-0.003 -0.072,0.01 -0.15361,0.0279 -0.37737,0.0827 -0.66276,0.21868 -0.86525,0.41223 l -0.0897,0.0857 -0.10218,-0.0556 c -0.0562,-0.0306 -0.1217,-0.0687 -0.14557,-0.0848 l -0.0434,-0.0292 0.0772,-0.0874 c 0.089,-0.10082 0.28532,-0.24348 0.45768,-0.33266 0.44615,-0.23083 1.21713,-0.34577 1.99655,-0.29767 0.32918,0.0203 0.4483,0.0439 0.64181,0.12676 0.36379,0.15586 0.61892,0.44551 0.70211,0.79713 0.03,0.12672 0.033,0.22141 0.0326,1.03809 -5.3e-4,0.96673 -0.006,1.04177 -0.0928,1.22929 -0.0722,0.1561 -0.15504,0.26485 -0.29655,0.38918 -0.19047,0.16734 -0.40656,0.27013 -0.67065,0.31903 -0.14938,0.0277 -0.5903,0.0271 -0.74819,-8.7e-4 z m 0.67596,-0.30191 c 0.26277,-0.0423 0.54488,-0.23052 0.67105,-0.44759 0.0986,-0.16966 0.096,-0.14061 0.10278,-1.12625 0.007,-1.01204 0.004,-1.05291 -0.10264,-1.24189 -0.10721,-0.19067 -0.33321,-0.3602 -0.56551,-0.4242 -0.16338,-0.045 -0.5119,-0.0568 -0.69296,-0.0235 -0.37461,0.0689 -0.66967,0.31791 -0.75423,0.63643 -0.0238,0.0896 -0.0269,0.23612 -0.0225,1.04409 l 0.005,0.93983 0.0478,0.1042 c 0.12422,0.27072 0.3603,0.45638 0.67419,0.53019 0.11086,0.0261 0.49636,0.0313 0.63678,0.009 z"
       id="path4513"
       inkscape:connector-curvature="0"
       sodipodi:nodetypes="ccsscccsccsccsccccccccccccccccccccccccscscccssccccccccccccccccccsssccccccccscscccccccccccccccccccccccccccccccssscssscccscccccccscsccsccccscccscccccccccscccscssccsscccsscccccccssssscccscscscccscsscscscccccccccscsccssccsccccscccccccccccccccccccccccccccccsccscscscccccccccccccccccccccccccccccccccccccccccccsccscsccsccccccssccscsscssscccscccscccsccccccccccccccsccssssccccsccccssccccccscscccscccssccccscccc" />
  </g>
</svg>
