<?xml version="1.0" encoding="UTF-8" standalone="no"?>
<!-- Created with Inkscape (http://www.inkscape.org/) -->

<svg
   xmlns:dc="http://purl.org/dc/elements/1.1/"
   xmlns:cc="http://creativecommons.org/ns#"
   xmlns:rdf="http://www.w3.org/1999/02/22-rdf-syntax-ns#"
   xmlns:svg="http://www.w3.org/2000/svg"
   xmlns="http://www.w3.org/2000/svg"
   xmlns:sodipodi="http://sodipodi.sourceforge.net/DTD/sodipodi-0.dtd"
   xmlns:inkscape="http://www.inkscape.org/namespaces/inkscape"
   width="26.359539mm"
   height="28.345551mm"
   viewBox="0 0 26.359539 28.345551"
   version="1.1"
   id="svg8"
   inkscape:version="0.92.1 r15371"
   sodipodi:docname="survey.svg">
  <defs
     id="defs2" />
  <sodipodi:namedview
     id="base"
     pagecolor="#ffffff"
     bordercolor="#666666"
     borderopacity="1.0"
     inkscape:pageopacity="0.0"
     inkscape:pageshadow="2"
     inkscape:zoom="0.49497475"
     inkscape:cx="-364.1576"
     inkscape:cy="34.856005"
     inkscape:document-units="mm"
     inkscape:current-layer="layer1"
     showgrid="false"
     inkscape:window-width="1920"
     inkscape:window-height="1027"
     inkscape:window-x="1920"
     inkscape:window-y="24"
     inkscape:window-maximized="1" />
  <metadata
     id="metadata5">
    <rdf:RDF>
      <cc:Work
         rdf:about="">
        <dc:format>image/svg+xml</dc:format>
        <dc:type
           rdf:resource="http://purl.org/dc/dcmitype/StillImage" />
        <dc:title></dc:title>
      </cc:Work>
    </rdf:RDF>
  </metadata>
  <g
     inkscape:label="Layer 1"
     inkscape:groupmode="layer"
     id="layer1"
     transform="translate(-56.366179,-47.725643)">
    <path
       style="fill:#000000;stroke-width:0.12327869"
       d="m 68.193966,75.954848 c -1.123953,-0.211199 -3.757782,-1.490005 -6.58151,-3.195535 -3.112288,-1.87982 -4.004264,-2.693207 -4.81248,-4.388481 L 56.417952,67.569517 56.380995,62.2184 c -0.03499,-5.065623 -0.02375,-5.394493 0.210614,-6.163939 0.58357,-1.915923 1.683779,-2.996104 5.188968,-5.094502 2.275601,-1.362297 4.49288,-2.500667 5.60918,-2.879796 1.383987,-0.470049 2.925065,-0.472777 4.286954,-0.0076 2.452385,0.837685 7.936995,4.064869 9.329082,5.489292 0.794001,0.812447 1.398883,1.886917 1.604947,2.850917 0.101903,0.476721 0.133153,2.215335 0.105255,5.855742 -0.03896,5.083624 -0.04487,5.190567 -0.325593,5.885696 -0.42113,1.042827 -1.268838,2.088156 -2.360407,2.910675 -2.042282,1.538906 -6.803999,4.185664 -8.438685,4.690564 -1.086141,0.335479 -2.295374,0.406439 -3.397342,0.199375 z m 3.325625,-1.519224 c 1.731432,-0.604456 5.87827,-2.946586 7.745681,-4.374748 0.757083,-0.579005 1.608018,-1.722782 1.945209,-2.614635 0.214203,-0.566559 0.233044,-1.010068 0.233044,-5.4859 0,-4.48468 -0.0185,-4.918224 -0.234116,-5.4859 -0.367307,-0.967068 -1.037364,-1.886471 -1.883501,-2.584406 -1.575552,-1.299592 -6.798033,-4.185572 -8.266253,-4.567995 -0.830485,-0.216316 -2.039034,-0.236127 -2.844818,-0.04665 -0.725848,0.170693 -3.472087,1.479446 -5.051988,2.407591 -3.779046,2.22007 -4.908877,3.311694 -5.396135,5.21365 -0.159916,0.624211 -0.185069,1.509837 -0.153603,5.40824 l 0.03763,4.661791 0.459211,0.928768 c 0.756896,1.53085 1.70145,2.34189 4.982767,4.278429 1.817969,1.072922 4.056559,2.160976 4.975071,2.418109 0.867866,0.242961 2.522719,0.168 3.451803,-0.156354 z m 2.465574,-3.725496 c -1.192293,-0.19582 -2.194581,-0.836668 -2.795037,-1.787113 l -0.34857,-0.551745 -3.178386,-2.4e-4 c -3.398423,-2.47e-4 -3.737075,-0.05075 -4.382464,-0.653323 -0.428717,-0.40029 -0.60209,-0.796219 -1.128664,-2.577501 -0.491876,-1.663872 -0.503222,-2.069392 -0.06263,-2.23846 0.112444,-0.04311 1.697743,-0.07845 3.522886,-0.07845 h 3.318442 v -4.92831 -4.928303 l 0.317751,-0.208202 c 0.233603,-0.153059 0.39585,-0.178298 0.61267,-0.0953 0.239915,0.09185 4.635541,5.500439 5.325953,6.553317 0.216118,0.329577 0.121088,0.839056 -0.186354,0.999078 -0.117855,0.06135 -0.990938,0.287672 -1.940184,0.502956 -0.949246,0.215284 -1.933935,0.446209 -2.188197,0.513169 l -0.462293,0.121757 v 0.747295 0.747304 l 1.633442,-0.08368 c 3.013807,-0.154402 3.438662,-0.142952 4.095544,0.110385 0.839954,0.323929 1.749467,1.203025 2.178783,2.105911 0.891655,1.875226 0.115041,4.279948 -1.70002,5.263972 -0.528655,0.286605 -0.811061,0.366739 -1.831356,0.519643 -0.135606,0.02036 -0.496196,-0.0042 -0.801311,-0.05414 z m 1.809928,-1.487185 c 0.967869,-0.468536 1.641875,-1.52921 1.641875,-2.583805 v -0.408665 l -1.093634,1.070179 c -0.601499,0.588597 -1.199247,1.07018 -1.328332,1.07018 -0.320193,0 -2.016067,-1.723333 -2.016067,-2.048712 0,-0.340885 0.416171,-0.704974 0.700019,-0.612414 0.123514,0.04029 0.462913,0.301539 0.754221,0.580574 l 0.529649,0.507345 0.826416,-0.796339 c 0.454529,-0.437982 0.909629,-0.825628 1.011335,-0.861433 0.269734,-0.09495 -0.386764,-0.760075 -1.064824,-1.078802 -1.840419,-0.865095 -3.996141,0.522519 -4.005975,2.57861 -0.0054,1.131026 0.537989,2.032138 1.520763,2.521877 0.814975,0.406114 1.764753,0.429219 2.524554,0.06142 z m -5.23089,-3.049232 c 0.0358,-0.394777 0.18219,-0.94732 0.325319,-1.227875 0.143128,-0.280555 0.260233,-0.540048 0.260233,-0.576652 0,-0.03661 -1.741119,-0.06658 -3.869154,-0.06658 h -3.869155 l 0.307738,1.017051 c 0.50179,1.65838 0.292577,1.5718 3.798217,1.5718 h 2.981716 z m 2.681006,-7.04878 c 2.36e-4,-0.06099 -2.497092,-3.281599 -2.719637,-3.50728 -0.07186,-0.07288 -0.115489,0.698677 -0.115489,2.042387 v 2.159499 l 1.417442,-0.316488 c 0.779595,-0.174065 1.417552,-0.344214 1.417684,-0.378118 z m -10.366612,2.567394 c -0.197115,-0.368316 -0.06599,-1.611394 0.262619,-2.489691 0.583829,-1.560421 2.69616,-4.017636 4.088868,-4.756465 0.541754,-0.287403 0.575825,-0.290781 0.885487,-0.08789 0.398764,0.261281 0.399772,0.426532 0.01078,1.768863 -0.411562,1.420218 -0.501028,2.88709 -0.257923,4.228877 0.167758,0.925927 0.168527,1.078258 0.0067,1.325249 -0.1793,0.273649 -0.228209,0.27907 -2.517967,0.27907 -2.271271,0 -2.339038,-0.0074 -2.478555,-0.268016 z m 3.427434,-2.83775 -0.0072,-1.749696 -0.538517,0.609368 c -0.603817,0.683262 -1.390927,2.153661 -1.390927,2.598393 0,0.281997 0.03212,0.291638 0.971882,0.291638 h 0.971881 z"
       id="path4507"
       inkscape:connector-curvature="0" />
  </g>
</svg>
