<?xml version="1.0" encoding="UTF-8" standalone="no"?>
<!-- Created with Inkscape (http://www.inkscape.org/) -->

<svg
   xmlns:dc="http://purl.org/dc/elements/1.1/"
   xmlns:cc="http://creativecommons.org/ns#"
   xmlns:rdf="http://www.w3.org/1999/02/22-rdf-syntax-ns#"
   xmlns:svg="http://www.w3.org/2000/svg"
   xmlns="http://www.w3.org/2000/svg"
   xmlns:sodipodi="http://sodipodi.sourceforge.net/DTD/sodipodi-0.dtd"
   xmlns:inkscape="http://www.inkscape.org/namespaces/inkscape"
   width="13.229008mm"
   height="13.229776mm"
   viewBox="0 0 13.229008 13.229775"
   version="1.1"
   id="svg8"
   sodipodi:docname="technique.svg"
   inkscape:version="0.92.1 r15371">
  <defs
     id="defs2" />
  <sodipodi:namedview
     id="base"
     pagecolor="#ffffff"
     bordercolor="#666666"
     borderopacity="1.0"
     inkscape:pageopacity="0.0"
     inkscape:pageshadow="2"
     inkscape:zoom="0.18574285"
     inkscape:cx="-2890.8746"
     inkscape:cy="1592.2748"
     inkscape:document-units="mm"
     inkscape:current-layer="layer1"
     showgrid="false"
     inkscape:window-width="1920"
     inkscape:window-height="1051"
     inkscape:window-x="0"
     inkscape:window-y="0"
     inkscape:window-maximized="1" />
  <metadata
     id="metadata5">
    <rdf:RDF>
      <cc:Work
         rdf:about="">
        <dc:format>image/svg+xml</dc:format>
        <dc:type
           rdf:resource="http://purl.org/dc/dcmitype/StillImage" />
        <dc:title></dc:title>
      </cc:Work>
    </rdf:RDF>
  </metadata>
  <g
     inkscape:label="Layer 1"
     inkscape:groupmode="layer"
     id="layer1"
     transform="translate(-1121.5825,-95.327075)">
    <path
       style="fill:#000000;stroke-width:0.05665409"
       d="m 1127.4892,108.51779 -0.2267,-0.0344 -0.1984,-0.57935 c -0.1091,-0.31863 -0.2239,-0.60248 -0.2551,-0.63078 -0.031,-0.0283 -0.2026,-0.093 -0.3809,-0.14378 l -0.3243,-0.0923 -0.49,0.3692 c -0.2694,0.20305 -0.5166,0.36919 -0.5492,0.36919 -0.088,0 -0.7778,-0.41243 -0.7778,-0.46479 0,-0.0247 -0.028,-0.0449 -0.063,-0.0449 -0.1106,0 -0.6167,-0.45928 -0.6493,-0.58919 -0.018,-0.0711 0.043,-0.33026 0.142,-0.5999 0.095,-0.26114 0.1735,-0.50527 0.1735,-0.5425 0,-0.0372 -0.083,-0.19652 -0.1842,-0.35395 l -0.1842,-0.28624 -0.6669,-0.003 -0.6668,-0.003 -0.113,-0.18405 c -0.115,-0.18736 -0.4184,-1.07912 -0.4815,-1.41567 -0.039,-0.20969 0,-0.25235 0.565,-0.63614 0.1831,-0.12406 0.3619,-0.25448 0.3972,-0.28984 0.077,-0.0765 0.062,-0.83308 -0.016,-0.85921 -0.1122,-0.0374 -0.8357,-0.53803 -0.9058,-0.62688 -0.09,-0.11351 -0.058,-0.32191 0.1429,-0.943158 0.1745,-0.53939 0.3263,-0.85784 0.4255,-0.89276 0.04,-0.014 0.3296,-0.0129 0.644,0.002 0.4437,0.0217 0.5865,0.0104 0.6383,-0.0505 0.1893,-0.22252 0.4055,-0.52433 0.4055,-0.56623 0,-0.0261 -0.091,-0.29152 -0.2034,-0.58975 -0.1118,-0.298251 -0.1906,-0.575201 -0.1751,-0.615481 0.3956,-0.38461 0.9403,-0.86963 1.4686,-1.07097 0.067,-0.0238 0.2534,0.0834 0.5865,0.33727 l 0.4881,0.37213 0.3909,-0.12324 0.3908,-0.12324 0.1159,-0.40673 c 0.1859,-0.65217 0.2737,-0.79097 0.5369,-0.84857 0.3231,-0.0707 1.5613,-0.006 1.6448,0.0856 0.055,0.0601 0.1921,0.46407 0.3474,1.02167 0.034,0.12191 0.1869,0.20681 0.5408,0.30008 l 0.2711,0.0715 0.4927,-0.36276 c 0.271,-0.19951 0.5178,-0.36275 0.5484,-0.36275 0.3511,0.13805 1.3248,0.79043 1.4563,1.03272 0.059,0.13403 0.043,0.2286 -0.1199,0.69944 -0.1699,0.49236 -0.18,0.55651 -0.1058,0.67046 0.045,0.0693 0.1331,0.2067 0.1954,0.30534 l 0.1134,0.17934 0.6647,5.29e-4 c 0.6394,5.29e-4 0.6681,0.006 0.754,0.13667 0.1152,0.17562 0.4562,1.14039 0.5049,1.42858 0.043,0.25143 0.021,0.27686 -0.5604,0.67096 -0.1831,0.12406 -0.3617,0.25427 -0.3968,0.28935 -0.053,0.0532 -0.067,0.34235 -0.037,0.75922 0,0.0467 0.1282,0.15344 0.2774,0.23716 0.1492,0.0837 0.3418,0.2175 0.428,0.29729 0.086,0.0798 0.1791,0.14509 0.2066,0.14509 0.093,0 0.1203,0.22023 0.057,0.46439 -0.092,0.35212 -0.3388,1.06805 -0.4293,1.24349 -0.043,0.0828 -0.11,0.16202 -0.1496,0.17597 -0.04,0.014 -0.3286,0.0128 -0.6422,-0.002 l -0.5701,-0.0278 -0.2376,0.29812 c -0.1306,0.16397 -0.2375,0.31968 -0.2375,0.34603 0,0.0264 0.091,0.29189 0.2033,0.59012 0.1118,0.29824 0.1906,0.5752 0.1751,0.61547 -0.2419,0.25188 -1.1698,1.04575 -1.5236,1.11009 -0.021,0 -0.2564,-0.16666 -0.5236,-0.37036 l -0.4858,-0.37038 -0.3954,0.11765 -0.3954,0.11766 -0.1165,0.40844 c -0.1893,0.66403 -0.2738,0.79671 -0.5373,0.84324 -0.2679,0.0473 -1.0949,0.045 -1.417,-0.004 z m 1.1305,-0.50835 c 0.1543,-0.0331 0.1796,-0.0765 0.3339,-0.57373 0.092,-0.29587 0.1736,-0.54601 0.1816,-0.55587 0.03,-0.0367 1.1646,-0.40678 1.2471,-0.40678 0.047,0 0.2448,0.12326 0.4391,0.27391 0.5637,0.43701 0.5772,0.44105 0.8526,0.25512 0.4399,-0.29694 0.6047,-0.44378 0.6047,-0.53892 0,-0.0522 -0.076,-0.28573 -0.1701,-0.51907 -0.1854,-0.4627 -0.2077,-0.62946 -0.099,-0.74132 0.183,-0.18856 0.3826,-0.43125 0.3826,-0.46519 0,-0.0207 0.064,-0.12202 0.1432,-0.22516 l 0.1432,-0.18755 0.6337,-0.016 0.6336,-0.016 0.1576,-0.46455 c 0.087,-0.25551 0.1449,-0.49765 0.1294,-0.53811 -0.016,-0.0405 -0.1491,-0.14834 -0.2968,-0.23974 -0.1477,-0.0914 -0.3642,-0.24 -0.4811,-0.33022 l -0.2126,-0.16405 v -0.60733 c 0,-0.39995 0.024,-0.63815 0.071,-0.69761 0.039,-0.0497 0.2685,-0.22147 0.5101,-0.38181 0.2416,-0.16034 0.4393,-0.30644 0.4393,-0.32467 0,-0.0182 -0.07,-0.24466 -0.1558,-0.50318 -0.1079,-0.32511 -0.1881,-0.47864 -0.2601,-0.49792 -0.057,-0.0153 -0.3306,-0.0132 -0.6072,0.005 l -0.5031,0.0326 -0.1721,-0.184121 c -0.1282,-0.24874 -0.3136,-0.43827 -0.469,-0.62892 -0.1955,-0.24091 -0.206,-0.272719 -0.1528,-0.46514 0.059,-0.21699 0.097,-0.30914 0.1698,-0.5005 0.036,-0.0673 0.087,-0.19764 0.1136,-0.2897 0.042,-0.1461 0.025,-0.18829 -0.1322,-0.33187 -0.099,-0.0905 -0.2028,-0.16449 -0.2303,-0.16449 -0.028,0 -0.1258,-0.0637 -0.2184,-0.14157 -0.093,-0.0779 -0.2062,-0.14157 -0.2524,-0.14157 -0.046,0 -0.2851,0.15289 -0.5308,0.33976 -0.2457,0.18687 -0.4674,0.34055 -0.4926,0.3415 -0.078,0.003 -1.0018,-0.2969 -1.1495,-0.37327 -0.1109,-0.0573 -0.1702,-0.17689 -0.2839,-0.57244 -0.079,-0.27501 -0.1622,-0.52868 -0.1847,-0.56369 -0.051,-0.0784 -1.0386,-0.0702 -1.1134,0.009 -0.028,0.0299 -0.1212,0.28373 -0.2068,0.56404 -0.086,0.28031 -0.1622,0.51773 -0.1704,0.52758 -0.031,0.0367 -1.1648,0.40678 -1.2469,0.40678 -0.047,0 -0.2443,-0.12383 -0.4385,-0.27516 -0.5574,-0.43454 -0.5772,-0.44042 -0.8536,-0.25386 -0.4399,0.29693 -0.6046,0.44377 -0.6046,0.53889 0,0.0522 0.076,0.28575 0.17,0.5191 0.1854,0.4627 0.2077,0.62944 0.099,0.74132 -0.183,0.18856 -0.3826,0.43124 -0.3826,0.46519 0,0.0207 -0.064,0.12201 -0.1432,0.22516 l -0.1432,0.18755 -0.6337,0.016 -0.6337,0.016 -0.1575,0.464551 c -0.087,0.2555 -0.1449,0.49765 -0.1294,0.53811 0.016,0.0404 0.1491,0.14834 0.2968,0.23974 0.1477,0.0914 0.3642,0.24 0.4811,0.33022 l 0.2125,0.16405 v 0.61815 c 0,0.70977 0.016,0.68062 -0.5807,1.06613 -0.2061,0.13316 -0.3881,0.27693 -0.4045,0.3195 -0.031,0.0814 0.2221,0.85088 0.3212,0.97583 0.044,0.0553 0.1913,0.0636 0.6141,0.0345 l 0.5564,-0.0383 0.1719,0.18384 c 0.094,0.10111 0.1719,0.20774 0.1719,0.23695 0,0.0292 0.096,0.15616 0.2125,0.28212 0.1169,0.12596 0.232,0.26326 0.2557,0.30511 0.039,0.0683 -0.052,0.43373 -0.183,0.73507 -0.1052,0.24243 -0.1587,0.46752 -0.1236,0.52052 0.066,0.10027 0.7662,0.58372 0.845,0.58372 0.042,0 0.2815,-0.1555 0.5313,-0.34555 0.3354,-0.25506 0.4867,-0.33748 0.5777,-0.3147 0.4348,0.10882 1.0964,0.33564 1.1476,0.39343 0.049,0.0548 0.1958,0.50603 0.3397,1.04137 0.029,0.10845 0.6545,0.15925 1.0134,0.0823 z m -0.9456,-2.44081 c -0.4056,-0.0735 -0.8237,-0.22066 -1.2408,-0.43673 -0.8584,-0.51895 -1.5603,-1.47747 -1.8126,-2.39628 -0.091,-0.34593 -0.09,-1.20475 0,-1.58559 0.2328,-0.67282 0.6689,-1.468339 1.0835,-1.866759 0.8961,-0.85449 2.3113,-1.20963 3.4373,-0.86256 0.436,0.13437 0.5845,0.23845 0.5845,0.40963 0,0.20272 -0.1873,0.23579 -0.6344,0.11201 -0.4925,-0.13637 -1.2369,-0.15017 -1.6841,-0.0313 -0.8461,0.22497 -1.5931,0.82787 -1.9792,1.597359 -0.2587,0.51573 -0.3501,0.89015 -0.3501,1.43438 0,0.84323 0.333,1.64294 0.9262,2.22417 0.6091,0.59691 1.3291,0.88902 2.1912,0.88902 0.265,0 0.6196,-0.0367 0.7881,-0.0815 1.1227,-0.29851 2.0621,-1.2876 2.2761,-2.3966 0.084,-0.43623 0.041,-1.24918 -0.084,-1.59261 -0.082,-0.22497 -0.082,-0.26271 0,-0.38224 0.1101,-0.16778 0.2844,-0.17011 0.3904,-0.005 0.3,0.46678 0.3729,1.62485 0.1471,2.3359 -0.2928,0.82399 -0.9596,1.77063 -1.7494,2.19947 -0.7301,0.3809 -1.6366,0.55338 -2.288,0.43535 z m 0.147,-1.70035 c -1.0232,-0.21252 -1.7517,-1.26882 -1.5487,-2.24553 0.1432,-0.68932 0.5077,-1.15838 1.1277,-1.45103 0.3129,-0.14767 0.4382,-0.175109 0.8001,-0.175109 0.9605,0 1.7183,0.641799 1.9234,1.629069 0.1161,0.55862 -0.1133,1.2689 -0.5517,1.70832 -0.4159,0.41686 -1.1855,0.65172 -1.7508,0.53428 z m 1.1514,-0.72534 c 0.1565,-0.1009 0.3466,-0.29271 0.4438,-0.44766 0.1544,-0.24619 0.1701,-0.31549 0.1701,-0.75376 0,-0.44709 -0.014,-0.50337 -0.1821,-0.76447 -0.1061,-0.16426 -0.2953,-0.35271 -0.4535,-0.45174 -0.2462,-0.15417 -0.3159,-0.16987 -0.7531,-0.16987 -0.4372,0 -0.5069,0.0157 -0.7532,0.16987 -0.1581,0.099 -0.3473,0.28748 -0.4534,0.45174 -0.1687,0.2611 -0.1821,0.31738 -0.1821,0.76447 0,0.43848 0.016,0.50736 0.1701,0.75279 0.1694,0.26922 0.485,0.52361 0.7614,0.61376 0.08,0.0261 0.3284,0.0393 0.5519,0.0294 0.341,-0.0151 0.4505,-0.0464 0.6801,-0.19456 z"
       id="path4498"
       inkscape:connector-curvature="0"
       sodipodi:nodetypes="cccccccsssccsccccccccccccccsscccccccccccccccccccccccccscsccccccsccscscccccccccccscccccscccccccccsscsccccccccccscsccccccccscscccsccccccsccsccccccsccccsscccccccccccscccscsscccccccccssscccccsccsccscc" />
  </g>
</svg>
