<?xml version="1.0" encoding="UTF-8" standalone="no"?>
<!-- Created with Inkscape (http://www.inkscape.org/) -->

<svg
   xmlns:dc="http://purl.org/dc/elements/1.1/"
   xmlns:cc="http://creativecommons.org/ns#"
   xmlns:rdf="http://www.w3.org/1999/02/22-rdf-syntax-ns#"
   xmlns:svg="http://www.w3.org/2000/svg"
   xmlns="http://www.w3.org/2000/svg"
   xmlns:sodipodi="http://sodipodi.sourceforge.net/DTD/sodipodi-0.dtd"
   xmlns:inkscape="http://www.inkscape.org/namespaces/inkscape"
   width="13.444392mm"
   height="13.568094mm"
   viewBox="0 0 13.444392 13.568094"
   version="1.1"
   id="svg8"
   inkscape:version="0.92.1 r15371"
   sodipodi:docname="wheel.svg">
  <defs
     id="defs2" />
  <sodipodi:namedview
     id="base"
     pagecolor="#ffffff"
     bordercolor="#666666"
     borderopacity="1.0"
     inkscape:pageopacity="0.0"
     inkscape:pageshadow="2"
     inkscape:zoom="2.8"
     inkscape:cx="66.238265"
     inkscape:cy="-23.673686"
     inkscape:document-units="mm"
     inkscape:current-layer="layer1"
     showgrid="false"
     inkscape:window-width="1920"
     inkscape:window-height="1027"
     inkscape:window-x="1920"
     inkscape:window-y="24"
     inkscape:window-maximized="1" />
  <metadata
     id="metadata5">
    <rdf:RDF>
      <cc:Work
         rdf:about="">
        <dc:format>image/svg+xml</dc:format>
        <dc:type
           rdf:resource="http://purl.org/dc/dcmitype/StillImage" />
        <dc:title></dc:title>
      </cc:Work>
    </rdf:RDF>
  </metadata>
  <g
     inkscape:label="Layer 1"
     inkscape:groupmode="layer"
     id="layer1"
     transform="translate(144.14426,-300.9332)">
    <path
       style="fill:#000000;stroke:#000000;stroke-width:0.215;stroke-miterlimit:4;stroke-dasharray:none;stroke-opacity:1"
       d="m -137.59366,314.25438 c -0.10609,-0.0401 -0.2182,-0.13957 -0.28518,-0.25294 -0.0746,-0.12621 -0.0815,-0.19362 -0.0815,-0.79221 v -0.55498 l -0.0485,-0.008 c -0.0266,-0.004 -0.13688,-0.0215 -0.24495,-0.0386 -0.76466,-0.12054 -1.52573,-0.44569 -2.18357,-0.93291 -0.0707,-0.0523 -0.13424,-0.0951 -0.14131,-0.0951 -0.007,0 -0.19417,0.18034 -0.4158,0.40077 -0.4229,0.42061 -0.46563,0.45395 -0.63212,0.49316 -0.15791,0.0372 -0.34511,-0.01 -0.46831,-0.11814 -0.0302,-0.0265 -0.0769,-0.0928 -0.1037,-0.14724 -0.0443,-0.09 -0.0487,-0.11125 -0.0483,-0.23341 4e-4,-0.11547 0.007,-0.148 0.0437,-0.23123 0.0387,-0.0867 0.0861,-0.14006 0.45059,-0.50722 0.22403,-0.2257 0.40732,-0.41603 0.40732,-0.42297 0,-0.007 -0.0428,-0.0704 -0.0952,-0.14097 -0.41589,-0.56076 -0.71215,-1.19104 -0.86769,-1.84594 -0.0301,-0.12652 -0.11072,-0.57655 -0.11072,-0.61765 0,-0.006 -0.24995,-0.0119 -0.55544,-0.0121 -0.31983,-2.2e-4 -0.58319,-0.007 -0.62084,-0.0154 -0.16771,-0.0386 -0.33719,-0.16725 -0.40698,-0.30885 -0.0289,-0.0585 -0.0346,-0.0938 -0.0346,-0.21179 0,-0.11799 0.006,-0.15325 0.0346,-0.21179 0.0698,-0.1416 0.23927,-0.27022 0.40698,-0.30885 0.0376,-0.009 0.30101,-0.0152 0.62084,-0.0154 0.30549,-2.3e-4 0.55551,-0.005 0.5556,-0.0115 6.4e-4,-0.0454 0.0655,-0.41949 0.0966,-0.55703 0.15412,-0.6823 0.45336,-1.32954 0.88169,-1.90708 0.0524,-0.0706 0.0952,-0.13404 0.0952,-0.14098 0,-0.007 -0.18329,-0.19726 -0.40732,-0.42296 -0.36445,-0.36716 -0.41189,-0.42056 -0.45059,-0.50722 -0.0372,-0.0832 -0.0433,-0.11576 -0.0437,-0.23123 -4.5e-4,-0.12216 0.004,-0.14337 0.0483,-0.23341 0.13,-0.26402 0.43691,-0.35262 0.72662,-0.20976 0.0544,0.0268 0.18345,0.14507 0.47751,0.43754 0.22163,0.22042 0.41337,0.40077 0.4261,0.40077 0.0127,0 0.0391,-0.017 0.0586,-0.0377 0.0195,-0.0207 0.0445,-0.0342 0.0556,-0.03 0.0111,0.004 0.0163,0.002 0.0116,-0.006 -0.017,-0.0275 0.39406,-0.29576 0.6965,-0.45448 0.5437,-0.28532 0.9974,-0.42599 1.73729,-0.53862 l 0.0485,-0.007 v -0.55498 c 0,-0.60205 0.007,-0.66497 0.084,-0.79685 0.0509,-0.0868 0.15779,-0.1881 0.24196,-0.22926 0.0947,-0.0463 0.27091,-0.0551 0.37039,-0.0185 0.17466,0.0642 0.30486,0.21157 0.35417,0.40082 0.0189,0.0726 0.0231,0.1903 0.0231,0.6438 v 0.55498 l 0.0485,0.007 c 0.74719,0.11374 1.18752,0.251 1.7558,0.5473 0.20432,0.10653 0.54642,0.32438 0.70716,0.45032 0.0486,0.0381 0.0954,0.0692 0.10403,0.0692 0.009,0 0.19701,-0.18035 0.41864,-0.40077 0.42289,-0.42061 0.46563,-0.45395 0.63212,-0.49316 0.15791,-0.0372 0.3451,0.01 0.46831,0.11814 0.12057,0.10579 0.18388,0.32017 0.14466,0.48981 -0.0398,0.17208 -0.0702,0.21124 -0.49347,0.63675 -0.22047,0.2216 -0.40086,0.40859 -0.40086,0.41551 0,0.007 0.0428,0.0704 0.0952,0.14097 0.53315,0.71888 0.84049,1.48049 0.97029,2.4045 l 0.01,0.0708 0.55453,3.4e-4 c 0.31921,2.3e-4 0.58228,0.007 0.61993,0.0154 0.1677,0.0386 0.33718,0.16725 0.40697,0.30885 0.0494,0.10018 0.0501,0.32194 0.001,0.42072 -0.0698,0.14161 -0.22222,0.26235 -0.38435,0.30455 -0.0718,0.0187 -0.19154,0.023 -0.64425,0.023 -0.30583,0 -0.55612,0.005 -0.5562,0.0112 -1.1e-4,0.006 -0.0132,0.0959 -0.0293,0.19953 -0.0549,0.35548 -0.14411,0.69924 -0.26431,1.01863 -0.0603,0.16019 -0.25888,0.58438 -0.32788,0.70035 -0.12978,0.21814 -0.16708,0.27793 -0.21381,0.34272 -0.17319,0.24011 -0.2382,0.33417 -0.2382,0.34466 0,0.006 0.1833,0.19647 0.40733,0.42216 0.36445,0.36717 0.41188,0.42056 0.45059,0.50722 0.0372,0.0832 0.0433,0.11576 0.0437,0.23123 4.5e-4,0.12216 -0.004,0.14337 -0.0483,0.23342 -0.13,0.26401 -0.43691,0.35261 -0.72662,0.20975 -0.0544,-0.0268 -0.18345,-0.14507 -0.47751,-0.43754 -0.22163,-0.22042 -0.41002,-0.40077 -0.41864,-0.40077 -0.009,0 -0.0554,0.0311 -0.10403,0.0692 -0.16089,0.12606 -0.50292,0.34383 -0.70716,0.45026 -0.56609,0.29498 -1.03209,0.4403 -1.7558,0.54756 l -0.0485,0.007 v 0.55498 c 0,0.60205 -0.007,0.66498 -0.084,0.79685 -0.0508,0.0867 -0.15769,0.18802 -0.24196,0.22942 -0.0873,0.0429 -0.29093,0.053 -0.38103,0.0189 z m 0.29634,-0.13586 c 0.0908,-0.0309 0.17807,-0.11718 0.22929,-0.22658 l 0.0394,-0.0842 0.005,-0.56644 0.005,-0.56643 h -0.40448 -0.40448 l 0.005,0.56643 0.005,0.56644 0.0394,0.0842 c 0.0964,0.20582 0.28378,0.29398 0.48171,0.22658 z m 0.35095,-1.6017 c 0.78431,-0.0694 1.59386,-0.36132 2.25906,-0.81452 0.30954,-0.21089 0.61121,-0.46864 0.84135,-0.71886 0.1076,-0.11699 0.12688,-0.13201 0.14816,-0.1154 0.0219,0.0171 0.0223,0.0163 0.003,-0.008 -0.0186,-0.0237 -0.016,-0.032 0.0232,-0.0745 0.17507,-0.18965 0.43712,-0.59086 0.60885,-0.93217 0.27287,-0.54235 0.43149,-1.08589 0.50074,-1.71588 0.0221,-0.20061 0.022,-0.75116 -1.1e-4,-0.95366 -0.10177,-0.93241 -0.42644,-1.75503 -0.98128,-2.48627 -0.0538,-0.0709 -0.12044,-0.15428 -0.14814,-0.18534 -0.0277,-0.0311 -0.0463,-0.0631 -0.0413,-0.0711 0.005,-0.008 0.003,-0.0128 -0.004,-0.0106 -0.007,0.002 -0.10735,-0.0904 -0.22306,-0.20595 -1.09948,-1.09775 -2.60445,-1.60674 -4.13548,-1.39865 -0.81163,0.11031 -1.60437,0.43928 -2.28604,0.94866 -0.064,0.0479 -0.1238,0.0825 -0.13278,0.0769 -0.009,-0.006 -0.0121,-0.003 -0.007,0.006 0.0125,0.0201 -0.12283,0.14052 -0.14354,0.12773 -0.008,-0.005 -0.0111,-0.003 -0.006,0.006 0.0122,0.0198 -0.13452,0.15773 -0.15458,0.14534 -0.008,-0.005 -0.0132,-0.003 -0.011,0.005 0.002,0.008 -0.0603,0.0837 -0.13896,0.16874 -0.81446,0.88058 -1.2653,1.93538 -1.32498,3.09995 -0.054,1.05476 0.22844,2.08254 0.81234,2.95552 0.15707,0.23484 0.29855,0.41717 0.43145,0.55601 0.0495,0.0518 0.0923,0.10031 0.095,0.10792 0.007,0.0208 0.3633,0.34595 0.48429,0.44242 0.89879,0.71664 2.03583,1.09968 3.16404,1.06587 0.10661,-0.003 0.27101,-0.0126 0.36532,-0.021 z m -0.93941,-1.199 c -0.66796,-0.0884 -1.27298,-0.33941 -1.80422,-0.74853 -0.17126,-0.13189 -0.53479,-0.49916 -0.66623,-0.67308 -0.39753,-0.52603 -0.64781,-1.14103 -0.72749,-1.78768 -0.0471,-0.38229 -0.0231,-0.8742 0.0611,-1.25213 0.12302,-0.55228 0.41328,-1.14076 0.76915,-1.55939 0.72173,-0.84903 1.72662,-1.3165 2.82997,-1.3165 1.10158,0 2.09017,0.45815 2.82141,1.30754 0.35936,0.41743 0.65343,1.01046 0.77771,1.56835 0.11304,0.50747 0.11304,1.10184 0,1.60931 -0.12289,0.55165 -0.40381,1.12267 -0.76241,1.54971 -0.61322,0.73025 -1.44433,1.1829 -2.39386,1.30379 -0.2188,0.0279 -0.68961,0.0271 -0.9051,-10e-4 z m 0.84628,-0.13041 c 0.0145,-0.009 0.0186,-0.22786 0.0186,-1.00312 v -0.99166 l -0.041,0.0104 c -0.20025,0.0507 -0.52299,0.0506 -0.72331,-3e-5 l -0.0411,-0.0104 0.004,0.99628 0.004,0.99629 0.0671,0.01 c 0.0904,0.0132 0.68871,0.007 0.71208,-0.008 z m -0.92084,-1.02853 v -1.00392 l -0.0708,-0.031 -0.0708,-0.031 -0.71116,0.70992 c -0.39113,0.39046 -0.70796,0.71509 -0.70405,0.7214 0.0122,0.0198 0.24608,0.16927 0.38718,0.24751 0.17791,0.0987 0.41482,0.20092 0.61365,0.26491 0.17696,0.057 0.45079,0.12346 0.51503,0.12509 l 0.041,10e-4 z m 1.29728,0.96815 c 0.31514,-0.0715 0.55702,-0.15808 0.83928,-0.30059 0.16637,-0.084 0.45739,-0.26028 0.48543,-0.29405 0.0123,-0.0148 -0.14933,-0.18426 -0.69537,-0.72935 l -0.71135,-0.71011 -0.0708,0.031 -0.0708,0.031 v 1.00392 1.00392 l 0.0335,-1.1e-4 c 0.0185,-6e-5 0.10401,-0.0161 0.19012,-0.0356 z m -1.66707,-2.16783 c -0.12471,-0.0836 -0.30501,-0.26273 -0.38885,-0.38632 -0.0351,-0.0517 -0.0694,-0.0919 -0.0762,-0.0894 -0.007,0.003 -0.26515,0.25447 -0.574,0.55988 -0.31889,0.31533 -0.56854,0.55098 -0.57771,0.54531 -0.01,-0.006 -0.0119,-0.003 -0.005,0.008 0.007,0.0112 -0.0365,0.0644 -0.11699,0.14322 -0.0704,0.069 -0.12803,0.13085 -0.12803,0.13754 0,0.021 0.33038,0.36266 0.44664,0.46183 l 0.11113,0.0948 0.7045,-0.70389 0.70449,-0.7039 z m 3.34064,1.2816 c 0.0744,-0.0707 0.18201,-0.18139 0.23906,-0.246 l 0.10374,-0.11748 -0.69871,-0.69835 c -0.3843,-0.3841 -0.70353,-0.69835 -0.70941,-0.69835 -0.006,0 -0.039,0.0419 -0.0737,0.0931 -0.082,0.12118 -0.27922,0.31571 -0.39659,0.39115 l -0.0927,0.0596 0.70331,0.70314 0.70332,0.70314 0.0432,-0.0307 c 0.0238,-0.0169 0.10408,-0.0886 0.17851,-0.15925 z m -3.89837,-1.97268 -0.0325,-0.0706 h -1.00366 -1.00365 l 1.1e-4,0.0335 c 2.3e-4,0.0485 0.0645,0.32471 0.11144,0.47833 0.10134,0.332 0.30964,0.75256 0.49801,1.00551 l 0.0369,0.0496 0.7129,-0.71286 0.7129,-0.71287 -0.0325,-0.0706 z m 4.42487,1.3495 c 0.17514,-0.26577 0.32154,-0.56851 0.41652,-0.86135 0.0531,-0.16363 0.12709,-0.47056 0.12709,-0.52704 v -0.0317 h -1.00489 -1.0049 l -0.024,0.0599 c -0.0132,0.033 -0.024,0.0681 -0.024,0.0782 0,0.0233 1.40363,1.42707 1.41805,1.41817 0.006,-0.004 0.0492,-0.0649 0.0961,-0.13612 z m -2.61013,-0.55308 c 0.4298,-0.11837 0.75665,-0.38425 0.94676,-0.77019 0.11097,-0.22526 0.14022,-0.35523 0.14082,-0.62584 3.9e-4,-0.18314 -0.006,-0.24721 -0.0327,-0.35466 -0.0634,-0.25027 -0.21964,-0.52287 -0.39748,-0.69352 -0.0519,-0.0498 -0.0902,-0.0953 -0.0851,-0.101 0.005,-0.006 0.002,-0.006 -0.007,-0.001 -0.009,0.005 -0.0491,-0.0146 -0.0895,-0.0436 -0.13276,-0.0952 -0.297,-0.16895 -0.49843,-0.22383 -0.0733,-0.02 -0.15322,-0.0264 -0.32805,-0.0264 -0.23913,0 -0.31478,0.0124 -0.50698,0.0829 -0.33615,0.12338 -0.62942,0.39072 -0.79056,0.72067 -0.11244,0.23023 -0.14023,0.3557 -0.14023,0.63329 0,0.19383 0.005,0.25133 0.0341,0.35762 0.15354,0.56997 0.61549,0.98418 1.20234,1.07811 0.10273,0.0164 0.44823,-0.004 0.55171,-0.0323 z m -1.89342,-1.04213 c -0.0507,-0.20006 -0.0507,-0.52264 0,-0.7227 l 0.0104,-0.041 h -0.99851 -0.99852 l -0.01,0.10058 c -0.0123,0.13042 -0.0124,0.44477 -5e-5,0.59007 l 0.01,0.11401 h 0.99849 0.99848 l -0.0104,-0.041 z m 5.07372,0.0149 c 0.014,-0.034 0.014,-0.71849 0,-0.7525 -0.0101,-0.0245 -0.0721,-0.0261 -1.0044,-0.0261 h -0.99368 l 0.0104,0.041 c 0.0254,0.10036 0.0374,0.21626 0.0374,0.36135 0,0.14509 -0.012,0.26099 -0.0374,0.36135 l -0.0104,0.041 h 0.99368 c 0.93234,0 0.99435,-0.002 1.0044,-0.0261 z m -4.99505,-0.98328 0.0325,-0.0706 -0.71083,-0.71091 c -0.39095,-0.391 -0.71571,-0.70789 -0.72168,-0.7042 -0.0204,0.0126 -0.18135,0.26535 -0.25513,0.40062 -0.099,0.18157 -0.19499,0.40391 -0.25759,0.5969 -0.0531,0.16364 -0.12708,0.47057 -0.12708,0.52705 v 0.0317 h 1.00365 1.00366 z m 4.96816,0.0371 c -9.1e-4,-0.0957 -0.105,-0.48332 -0.18906,-0.70408 -0.0909,-0.23871 -0.28357,-0.59629 -0.42012,-0.77965 l -0.0369,-0.0495 -0.70569,0.70509 c -0.38814,0.3878 -0.7057,0.71337 -0.7057,0.72348 0,0.0101 0.0108,0.0453 0.024,0.0783 l 0.024,0.0599 h 1.0049 1.00489 l -3.4e-4,-0.0335 z m -4.79868,-0.34273 c 0.0833,-0.1228 0.26387,-0.30206 0.38826,-0.38545 l 0.0999,-0.067 -0.70397,-0.70337 -0.70398,-0.70338 -0.0595,0.0472 c -0.0837,0.0664 -0.27368,0.25234 -0.39864,0.38997 l -0.10585,0.11658 0.69961,0.69925 c 0.38479,0.38459 0.70443,0.69925 0.7103,0.69925 0.006,0 0.0391,-0.0419 0.0739,-0.0931 z m 3.37299,-0.60522 0.69871,-0.69836 -0.10456,-0.11747 c -0.1148,-0.12896 -0.28661,-0.29783 -0.39034,-0.38366 l -0.0666,-0.0551 -0.70431,0.70371 -0.70431,0.7037 0.0999,0.0669 c 0.11718,0.0784 0.31,0.27126 0.39299,0.39298 0.0321,0.0471 0.0632,0.0857 0.0691,0.0857 0.006,0 0.32511,-0.31426 0.70941,-0.69835 z m -2.63358,0.0323 c 0.0147,-0.006 0.0186,-0.22257 0.0186,-1.01191 v -1.00423 h -0.0317 c -0.0565,0 -0.36366,0.074 -0.52741,0.127 -0.32838,0.10636 -0.72697,0.30648 -0.95914,0.48157 l -0.0495,0.0374 0.7121,0.71171 0.71209,0.71172 0.0532,-0.0228 c 0.0293,-0.0125 0.0616,-0.0262 0.0718,-0.0305 z m 2.64912,-1.37759 c -0.0126,-0.0204 -0.2483,-0.17131 -0.38718,-0.24791 -0.17778,-0.0981 -0.41335,-0.19978 -0.61052,-0.26364 -0.16375,-0.053 -0.47089,-0.127 -0.52741,-0.127 h -0.0318 v 1.00392 1.00392 l 0.0708,0.031 0.0708,0.031 0.71116,-0.70991 c 0.39113,-0.39046 0.70796,-0.71509 0.70405,-0.7214 z m -2.33225,1.29736 c 0.15934,-0.0262 0.44726,-0.0148 0.60018,0.0239 l 0.041,0.0104 v -0.993 c 0,-0.93171 -0.002,-0.99367 -0.0261,-1.00371 -0.034,-0.014 -0.71899,-0.014 -0.75302,0 -0.0245,0.01 -0.0261,0.072 -0.0261,1.00371 v 0.993 l 0.041,-0.0104 c 0.0225,-0.006 0.0779,-0.0164 0.12302,-0.0239 z m -3.96682,6.23604 c 0.0437,-0.013 0.10368,-0.0392 0.13318,-0.0583 0.0295,-0.0191 0.2237,-0.20528 0.43157,-0.41378 l 0.37793,-0.37911 -0.0872,-0.0801 c -0.11158,-0.10254 -0.28901,-0.27985 -0.39163,-0.39135 l -0.0802,-0.0871 -0.37937,0.37768 c -0.20865,0.20772 -0.39543,0.4025 -0.41506,0.43285 -0.15333,0.23696 -0.0616,0.53573 0.18478,0.60203 0.0943,0.0254 0.13252,0.0249 0.22592,-0.003 z m 8.70846,-0.0259 c 0.13849,-0.0704 0.21691,-0.24597 0.18044,-0.40385 -0.0329,-0.14257 -0.0706,-0.1897 -0.47054,-0.58917 l -0.39129,-0.39081 -0.0802,0.0871 c -0.10262,0.1115 -0.28005,0.28881 -0.39163,0.39135 l -0.0872,0.0801 0.37794,0.37911 c 0.20787,0.2085 0.40225,0.39482 0.43197,0.41403 0.13314,0.0861 0.29994,0.0985 0.43044,0.0321 z m -9.52031,-4.64524 v -0.40327 l -0.56683,0.005 -0.56682,0.005 -0.0834,0.039 c -0.15141,0.0708 -0.25209,0.21286 -0.25209,0.35564 0,0.18127 0.15275,0.34705 0.35787,0.38838 0.0287,0.006 0.29048,0.0113 0.58173,0.0122 l 0.52955,0.002 z m 11.25155,0.35658 c 0.33357,-0.15603 0.33279,-0.55449 -0.001,-0.71171 l -0.082,-0.0386 -0.56682,-0.005 -0.56683,-0.005 v 0.4042 0.4042 l 0.56683,-0.005 0.56682,-0.005 z m -9.96957,-3.70886 c 0.041,-0.0483 0.0833,-0.0848 0.094,-0.0811 0.0107,0.004 0.0156,5.6e-4 0.0109,-0.007 -0.009,-0.0145 0.11235,-0.14257 0.27395,-0.28926 l 0.0955,-0.0867 -0.3788,-0.37997 c -0.20834,-0.20898 -0.40364,-0.39601 -0.43401,-0.41564 -0.0304,-0.0196 -0.0954,-0.0468 -0.14458,-0.0605 -0.21606,-0.06 -0.4202,0.0605 -0.46462,0.27432 -0.02,0.0964 -0.004,0.19778 0.0476,0.29501 0.0169,0.0322 0.19521,0.22399 0.39615,0.42629 0.20093,0.2023 0.36095,0.37489 0.35561,0.38353 -0.006,0.009 -9.1e-4,0.0123 0.0119,0.007 0.0119,-0.005 0.0261,-10e-4 0.0315,0.008 0.016,0.0259 0.0267,0.0183 0.10501,-0.074 z m 7.69427,-0.0364 c 0.0719,-0.0695 0.13756,-0.12207 0.14592,-0.1169 0.008,0.005 0.0112,0.003 0.006,-0.005 -0.0129,-0.0208 0.0903,-0.1283 0.11093,-0.11555 0.011,0.007 0.0131,0.004 0.006,-0.008 -0.0146,-0.0236 0.0357,-0.0793 0.0624,-0.0691 0.0112,0.004 0.0163,10e-4 0.0113,-0.007 -0.013,-0.021 0.21251,-0.24241 0.23357,-0.22941 0.011,0.007 0.013,0.004 0.006,-0.008 -0.007,-0.0111 0.004,-0.0342 0.0265,-0.0582 0.1215,-0.1277 0.15828,-0.34261 0.0835,-0.48786 -0.0979,-0.19003 -0.32485,-0.24779 -0.544,-0.13842 -0.0385,0.0192 -0.21103,0.17983 -0.4533,0.42207 l -0.39108,0.39102 0.0872,0.0793 c 0.12035,0.10955 0.4069,0.40207 0.43381,0.44286 0.0122,0.0184 0.0272,0.0335 0.0333,0.0335 0.006,0 0.0701,-0.0568 0.14196,-0.12629 z m -3.55949,-2.19061 c -0.005,-0.55068 -0.006,-0.56846 -0.0385,-0.63921 -0.052,-0.11269 -0.11556,-0.18261 -0.20411,-0.22447 -0.1987,-0.0939 -0.40975,-0.005 -0.51333,0.21529 l -0.0385,0.082 -0.005,0.56644 -0.005,0.56643 h 0.40448 0.40448 z"
       id="path4528"
       inkscape:connector-curvature="0" />
  </g>
</svg>
